<svg width="211" height="90" viewBox="0 0 211 90" fill="none" xmlns="http://www.w3.org/2000/svg">
<path d="M58.3999 10.8484C59.0051 8.69679 62.1471 9.00748 62.3192 11.2359L63.5525 27.2046C63.633 28.2464 64.5018 29.0506 65.5466 29.0506H80.5475L12.3289 19.4024C10.0788 19.0842 9.12541 22.1688 11.1627 23.1757L72.1213 53.3033L59.8572 44.9703C59.0626 44.4304 57.9963 44.5318 57.3176 45.2118L43.2034 59.354C41.5759 60.9847 38.9356 59.0243 40.0259 56.9947L49.2083 39.9021C49.693 38.9998 49.4177 37.877 48.5704 37.3014L41.8055 32.7049C40.1763 31.5979 40.9598 29.0506 42.9296 29.0506H51.7647C52.6607 29.0506 53.4474 28.4547 53.69 27.5922L58.3999 10.8484Z" fill="#FFB440"/>
<path d="M76.0988 49C75.8321 49 75.6054 48.92 75.4188 48.76C75.2588 48.5733 75.1788 48.3467 75.1788 48.08V29.12C75.1788 28.8533 75.2588 28.64 75.4188 28.48C75.6054 28.2933 75.8321 28.2 76.0988 28.2H78.0188C78.2854 28.2 78.4988 28.2933 78.6588 28.48C78.8188 28.64 78.8988 28.8533 78.8988 29.12V48.08C78.8988 48.3467 78.8188 48.5733 78.6588 48.76C78.4988 48.92 78.2854 49 78.0188 49H76.0988ZM75.7788 24.32C75.5121 24.32 75.2854 24.24 75.0988 24.08C74.9388 23.8933 74.8587 23.6667 74.8587 23.4V21.24C74.8587 20.9733 74.9388 20.76 75.0988 20.6C75.2854 20.4133 75.5121 20.32 75.7788 20.32H78.2988C78.5654 20.32 78.7788 20.4133 78.9388 20.6C79.1254 20.76 79.2188 20.9733 79.2188 21.24V23.4C79.2188 23.6667 79.1254 23.8933 78.9388 24.08C78.7788 24.24 78.5654 24.32 78.2988 24.32H75.7788ZM93.3444 49.4C91.451 49.4 89.811 49.04 88.4244 48.32C87.0644 47.5733 86.011 46.52 85.2644 45.16C84.5177 43.7733 84.1177 42.12 84.0644 40.2C84.0377 39.8 84.0244 39.2667 84.0244 38.6C84.0244 37.9333 84.0377 37.4 84.0644 37C84.1177 35.08 84.5177 33.44 85.2644 32.08C86.011 30.6933 87.0644 29.64 88.4244 28.92C89.811 28.1733 91.451 27.8 93.3444 27.8C94.891 27.8 96.211 28.0133 97.3044 28.44C98.4244 28.8667 99.3444 29.4133 100.064 30.08C100.784 30.7467 101.318 31.4667 101.664 32.24C102.038 33.0133 102.238 33.7467 102.264 34.44C102.291 34.7067 102.211 34.92 102.024 35.08C101.838 35.24 101.611 35.32 101.344 35.32H99.4244C99.1577 35.32 98.9577 35.2667 98.8244 35.16C98.691 35.0267 98.5577 34.8133 98.4244 34.52C97.9444 33.2133 97.291 32.2933 96.4644 31.76C95.6377 31.2267 94.611 30.96 93.3844 30.96C91.7844 30.96 90.4777 31.4533 89.4644 32.44C88.4777 33.4267 87.9444 35.0133 87.8644 37.2C87.8377 38.16 87.8377 39.0933 87.8644 40C87.9444 42.2133 88.4777 43.8133 89.4644 44.8C90.4777 45.76 91.7844 46.24 93.3844 46.24C94.611 46.24 95.6377 45.9733 96.4644 45.44C97.291 44.9067 97.9444 43.9867 98.4244 42.68C98.5577 42.3867 98.691 42.1867 98.8244 42.08C98.9577 41.9467 99.1577 41.88 99.4244 41.88H101.344C101.611 41.88 101.838 41.96 102.024 42.12C102.211 42.28 102.291 42.4933 102.264 42.76C102.238 43.32 102.118 43.8933 101.904 44.48C101.691 45.0667 101.344 45.6667 100.864 46.28C100.411 46.8667 99.8377 47.4 99.1444 47.88C98.451 48.3333 97.611 48.7067 96.6244 49C95.6644 49.2667 94.571 49.4 93.3444 49.4ZM115.135 49C113.641 49 112.428 48.72 111.495 48.16C110.561 47.5733 109.881 46.76 109.455 45.72C109.028 44.6533 108.815 43.4 108.815 41.96V31.4H105.695C105.428 31.4 105.201 31.32 105.015 31.16C104.855 30.9733 104.775 30.7467 104.775 30.48V29.12C104.775 28.8533 104.855 28.64 105.015 28.48C105.201 28.2933 105.428 28.2 105.695 28.2H108.815V21.52C108.815 21.2533 108.895 21.04 109.055 20.88C109.241 20.6933 109.468 20.6 109.735 20.6H111.615C111.881 20.6 112.095 20.6933 112.255 20.88C112.441 21.04 112.535 21.2533 112.535 21.52V28.2H117.495C117.761 28.2 117.975 28.2933 118.135 28.48C118.321 28.64 118.415 28.8533 118.415 29.12V30.48C118.415 30.7467 118.321 30.9733 118.135 31.16C117.975 31.32 117.761 31.4 117.495 31.4H112.535V41.68C112.535 42.9333 112.748 43.92 113.175 44.64C113.601 45.36 114.361 45.72 115.455 45.72H117.895C118.161 45.72 118.375 45.8133 118.535 46C118.721 46.16 118.815 46.3733 118.815 46.64V48.08C118.815 48.3467 118.721 48.5733 118.535 48.76C118.375 48.92 118.161 49 117.895 49H115.135ZM131.16 49.4C129.133 49.4 127.44 49.0133 126.08 48.24C124.72 47.4667 123.68 46.4 122.96 45.04C122.24 43.6533 121.84 42.08 121.76 40.32C121.733 39.8667 121.72 39.2933 121.72 38.6C121.72 37.88 121.733 37.3067 121.76 36.88C121.84 35.0933 122.24 33.52 122.96 32.16C123.706 30.8 124.76 29.7333 126.12 28.96C127.48 28.1867 129.16 27.8 131.16 27.8C133.16 27.8 134.84 28.1867 136.2 28.96C137.56 29.7333 138.6 30.8 139.32 32.16C140.066 33.52 140.48 35.0933 140.56 36.88C140.586 37.3067 140.6 37.88 140.6 38.6C140.6 39.2933 140.586 39.8667 140.56 40.32C140.48 42.08 140.08 43.6533 139.36 45.04C138.64 46.4 137.6 47.4667 136.24 48.24C134.88 49.0133 133.186 49.4 131.16 49.4ZM131.16 46.32C132.813 46.32 134.133 45.8 135.12 44.76C136.106 43.6933 136.64 42.1467 136.72 40.12C136.746 39.72 136.76 39.2133 136.76 38.6C136.76 37.9867 136.746 37.48 136.72 37.08C136.64 35.0533 136.106 33.52 135.12 32.48C134.133 31.4133 132.813 30.88 131.16 30.88C129.506 30.88 128.173 31.4133 127.16 32.48C126.173 33.52 125.653 35.0533 125.6 37.08C125.573 37.48 125.56 37.9867 125.56 38.6C125.56 39.2133 125.573 39.72 125.6 40.12C125.653 42.1467 126.173 43.6933 127.16 44.76C128.173 45.8 129.506 46.32 131.16 46.32ZM146.528 49C146.262 49 146.035 48.92 145.848 48.76C145.688 48.5733 145.608 48.3467 145.608 48.08V29.16C145.608 28.8933 145.688 28.6667 145.848 28.48C146.035 28.2933 146.262 28.2 146.528 28.2H148.368C148.635 28.2 148.862 28.2933 149.048 28.48C149.235 28.6667 149.328 28.8933 149.328 29.16V30.92C149.862 30.0133 150.595 29.3333 151.528 28.88C152.462 28.4267 153.582 28.2 154.888 28.2H156.488C156.755 28.2 156.968 28.2933 157.128 28.48C157.288 28.64 157.368 28.8533 157.368 29.12V30.76C157.368 31.0267 157.288 31.24 157.128 31.4C156.968 31.56 156.755 31.64 156.488 31.64H154.088C152.648 31.64 151.515 32.0667 150.688 32.92C149.862 33.7467 149.448 34.88 149.448 36.32V48.08C149.448 48.3467 149.355 48.5733 149.168 48.76C148.982 48.92 148.755 49 148.488 49H146.528ZM164.444 56.6C164.23 56.6 164.044 56.52 163.884 56.36C163.724 56.2 163.644 56.0133 163.644 55.8C163.644 55.6933 163.657 55.5867 163.684 55.48C163.71 55.3733 163.764 55.24 163.844 55.08L166.924 47.76L159.284 29.72C159.15 29.4 159.084 29.1733 159.084 29.04C159.084 28.8 159.164 28.6 159.324 28.44C159.484 28.28 159.684 28.2 159.924 28.2H161.884C162.15 28.2 162.364 28.2667 162.524 28.4C162.684 28.5333 162.79 28.6933 162.844 28.88L168.924 43.44L175.164 28.88C175.244 28.6933 175.35 28.5333 175.484 28.4C175.644 28.2667 175.87 28.2 176.164 28.2H178.044C178.284 28.2 178.484 28.28 178.644 28.44C178.804 28.6 178.884 28.7867 178.884 29C178.884 29.1333 178.817 29.3733 178.684 29.72L167.324 55.92C167.244 56.1067 167.124 56.2667 166.964 56.4C166.83 56.5333 166.617 56.6 166.324 56.6H164.444ZM189.41 49.4C187.917 49.4 186.637 49.2133 185.57 48.84C184.503 48.4667 183.637 48.0133 182.97 47.48C182.303 46.9467 181.797 46.4133 181.45 45.88C181.13 45.3467 180.957 44.92 180.93 44.6C180.903 44.3067 180.997 44.08 181.21 43.92C181.423 43.76 181.637 43.68 181.85 43.68H183.61C183.77 43.68 183.89 43.7067 183.97 43.76C184.077 43.7867 184.21 43.8933 184.37 44.08C184.717 44.4533 185.103 44.8267 185.53 45.2C185.957 45.5733 186.477 45.88 187.09 46.12C187.73 46.36 188.517 46.48 189.45 46.48C190.81 46.48 191.93 46.2267 192.81 45.72C193.69 45.1867 194.13 44.4133 194.13 43.4C194.13 42.7333 193.943 42.2 193.57 41.8C193.223 41.4 192.583 41.04 191.65 40.72C190.743 40.4 189.49 40.0667 187.89 39.72C186.29 39.3467 185.023 38.8933 184.09 38.36C183.157 37.8 182.49 37.1467 182.09 36.4C181.69 35.6267 181.49 34.76 181.49 33.8C181.49 32.8133 181.783 31.8667 182.37 30.96C182.957 30.0267 183.81 29.2667 184.93 28.68C186.077 28.0933 187.503 27.8 189.21 27.8C190.597 27.8 191.783 27.9733 192.77 28.32C193.757 28.6667 194.57 29.1067 195.21 29.64C195.85 30.1467 196.33 30.6533 196.65 31.16C196.97 31.6667 197.143 32.0933 197.17 32.44C197.197 32.7067 197.117 32.9333 196.93 33.12C196.743 33.28 196.53 33.36 196.29 33.36H194.61C194.423 33.36 194.263 33.32 194.13 33.24C194.023 33.16 193.917 33.0667 193.81 32.96C193.543 32.6133 193.223 32.2667 192.85 31.92C192.503 31.5733 192.037 31.2933 191.45 31.08C190.89 30.84 190.143 30.72 189.21 30.72C187.877 30.72 186.877 31 186.21 31.56C185.543 32.12 185.21 32.8267 185.21 33.68C185.21 34.1867 185.357 34.64 185.65 35.04C185.943 35.44 186.503 35.8 187.33 36.12C188.157 36.44 189.383 36.7867 191.01 37.16C192.77 37.5067 194.157 37.9733 195.17 38.56C196.183 39.1467 196.903 39.8267 197.33 40.6C197.757 41.3733 197.97 42.2667 197.97 43.28C197.97 44.4 197.637 45.4267 196.97 46.36C196.33 47.2933 195.37 48.04 194.09 48.6C192.837 49.1333 191.277 49.4 189.41 49.4Z" fill="black"/>
<path d="M57.5429 49C57.1429 49 56.8229 48.9067 56.5829 48.72C56.3696 48.5333 56.1963 48.28 56.0629 47.96L47.1429 22.24C47.0896 22.08 47.0629 21.9333 47.0629 21.8C47.0629 21.5867 47.1429 21.4 47.3029 21.24C47.4629 21.08 47.6496 21 47.8629 21H49.9429C50.2629 21 50.5029 21.0933 50.6629 21.28C50.8496 21.44 50.9563 21.5867 50.9829 21.72L58.8229 44.4L66.6629 21.72C66.7163 21.5867 66.8229 21.44 66.9829 21.28C67.1429 21.0933 67.3829 21 67.7029 21H69.7829C69.9963 21 70.1829 21.08 70.3429 21.24C70.5296 21.4 70.6229 21.5867 70.6229 21.8C70.6229 21.9333 70.5963 22.08 70.5429 22.24L61.5829 47.96C61.4763 48.28 61.3029 48.5333 61.0629 48.72C60.8496 48.9067 60.5429 49 60.1429 49H57.5429Z" fill="black"/>
</svg>
